<svg width="24" height="24" viewBox="0 0 24 24" fill="none" xmlns="http://www.w3.org/2000/svg">
<path d="M18.5333 6.8665C18.5333 7.6397 17.9065 8.2665 17.1333 8.2665C16.3601 8.2665 15.7333 7.6397 15.7333 6.8665C15.7333 6.09331 16.3601 5.4665 17.1333 5.4665C17.9065 5.4665 18.5333 6.09331 18.5333 6.8665Z" fill="black"/>
<path fill-rule="evenodd" clip-rule="evenodd" d="M12 16.6665C14.5773 16.6665 16.6666 14.5772 16.6666 11.9998C16.6666 9.42251 14.5773 7.33317 12 7.33317C9.42263 7.33317 7.33329 9.42251 7.33329 11.9998C7.33329 14.5772 9.42263 16.6665 12 16.6665ZM12 14.7998C13.5464 14.7998 14.8 13.5462 14.8 11.9998C14.8 10.4534 13.5464 9.19984 12 9.19984C10.4536 9.19984 9.19996 10.4534 9.19996 11.9998C9.19996 13.5462 10.4536 14.7998 12 14.7998Z" fill="black"/>
<path fill-rule="evenodd" clip-rule="evenodd" d="M2.66663 11.6265C2.66663 8.49021 2.66663 6.92206 3.27699 5.72416C3.81388 4.67045 4.67057 3.81376 5.72428 3.27687C6.92218 2.6665 8.49033 2.6665 11.6266 2.6665H12.3733C15.5096 2.6665 17.0777 2.6665 18.2756 3.27687C19.3293 3.81376 20.186 4.67045 20.7229 5.72416C21.3333 6.92206 21.3333 8.49021 21.3333 11.6265V12.3732C21.3333 15.5095 21.3333 17.0776 20.7229 18.2755C20.186 19.3292 19.3293 20.1859 18.2756 20.7228C17.0777 21.3332 15.5096 21.3332 12.3733 21.3332H11.6266C8.49033 21.3332 6.92218 21.3332 5.72428 20.7228C4.67057 20.1859 3.81388 19.3292 3.27699 18.2755C2.66663 17.0776 2.66663 15.5095 2.66663 12.3732V11.6265ZM11.6266 4.53317H12.3733C13.9722 4.53317 15.0592 4.53462 15.8994 4.60327C16.7177 4.67013 17.1362 4.79133 17.4282 4.94008C18.1307 5.29801 18.7018 5.86913 19.0597 6.57161C19.2085 6.86355 19.3297 7.28207 19.3965 8.10044C19.4652 8.94061 19.4666 10.0276 19.4666 11.6265V12.3732C19.4666 13.9721 19.4652 15.0591 19.3965 15.8992C19.3297 16.7176 19.2085 17.1361 19.0597 17.4281C18.7018 18.1305 18.1307 18.7017 17.4282 19.0596C17.1362 19.2084 16.7177 19.3295 15.8994 19.3964C15.0592 19.4651 13.9722 19.4665 12.3733 19.4665H11.6266C10.0277 19.4665 8.94073 19.4651 8.10056 19.3964C7.28219 19.3295 6.86367 19.2084 6.57173 19.0596C5.86926 18.7017 5.29813 18.1305 4.9402 17.4281C4.79145 17.1361 4.67025 16.7176 4.60339 15.8992C4.53474 15.0591 4.53329 13.9721 4.53329 12.3732V11.6265C4.53329 10.0276 4.53474 8.94061 4.60339 8.10044C4.67025 7.28207 4.79145 6.86355 4.9402 6.57161C5.29813 5.86913 5.86926 5.29801 6.57173 4.94008C6.86367 4.79133 7.28219 4.67013 8.10056 4.60327C8.94073 4.53462 10.0277 4.53317 11.6266 4.53317Z" fill="black"/>
</svg>
