<svg width="18" height="18" viewBox="0 0 18 18" fill="none" xmlns="http://www.w3.org/2000/svg">
<mask id="path-1-outside-1_301_455" maskUnits="userSpaceOnUse" x="0.00012207" y="0.00012207" width="18" height="18" fill="black">
<rect fill="white" x="0.00012207" y="0.00012207" width="18" height="18"/>
<path d="M9.00015 1.00012C7.41787 1.00012 5.87115 1.46931 4.55554 2.34834C3.23998 3.22742 2.21461 4.47686 1.60907 5.93864C1.00358 7.40047 0.845157 9.00901 1.15386 10.5608C1.46252 12.1127 2.22443 13.5382 3.34326 14.657C4.46209 15.7758 5.88758 16.5377 7.43942 16.8464C8.99126 17.1551 10.5998 16.9967 12.0616 16.3912C13.5234 15.7856 14.7728 14.7603 15.6519 13.4447C16.5309 12.1291 17.0001 10.5824 17.0001 9.00014C17.0001 6.87838 16.1573 4.84356 14.657 3.34328C13.1567 1.84296 11.1219 1.00012 9.00015 1.00012ZM12.6713 12.5372C12.6373 12.5938 12.5923 12.643 12.5391 12.682C12.4859 12.721 12.4254 12.749 12.3613 12.7645C12.2971 12.7799 12.2305 12.7824 12.1654 12.7719C12.1002 12.7614 12.0378 12.7381 11.9818 12.7033C10.1047 11.554 7.74235 11.2986 4.95863 11.9307C4.89529 11.9458 4.82962 11.9482 4.76535 11.9377C4.70112 11.9272 4.63955 11.9041 4.58435 11.8697C4.52911 11.8352 4.48126 11.7901 4.44357 11.737C4.40587 11.6839 4.37916 11.6239 4.36487 11.5604C4.34965 11.4967 4.34723 11.4306 4.35761 11.3659C4.36803 11.3012 4.39107 11.2392 4.42546 11.1834C4.45986 11.1277 4.50495 11.0793 4.55806 11.041C4.61121 11.0027 4.67138 10.9752 4.73514 10.9602C7.78065 10.2643 10.3984 10.5644 12.5053 11.8541C12.6177 11.9228 12.6983 12.0333 12.7294 12.1613C12.7606 12.2894 12.7397 12.4246 12.6713 12.5372ZM13.6482 10.36C13.559 10.4973 13.4204 10.595 13.2612 10.633C13.102 10.6711 12.9343 10.6465 12.7926 10.5644C10.365 9.21018 7.49918 8.87493 4.82455 9.63218C4.74133 9.67861 4.64876 9.70579 4.55368 9.71175C4.45855 9.71772 4.36333 9.70232 4.27495 9.66669C4.18657 9.63105 4.10731 9.57613 4.04295 9.50585C3.97858 9.43561 3.93074 9.35181 3.90295 9.26069C3.87517 9.16952 3.86814 9.07333 3.88238 8.9791C3.89662 8.88488 3.93176 8.79507 3.98524 8.7162C4.03871 8.63733 4.10918 8.57147 4.19141 8.52334C4.2737 8.47527 4.36566 8.44616 4.4606 8.43828C5.95348 8.00853 7.51719 7.88144 9.05986 8.06458C10.6025 8.24767 12.0931 8.73723 13.4439 9.50453C13.5811 9.59373 13.6788 9.73227 13.7168 9.89147C13.7549 10.0507 13.7303 10.2185 13.6482 10.36ZM13.7312 8.0935C11.1773 6.56116 6.90598 6.42069 4.44147 7.16771C4.25182 7.22531 4.04704 7.20517 3.87224 7.11175C3.69743 7.01837 3.56689 6.85936 3.50932 6.6697C3.45175 6.48008 3.47185 6.2753 3.56526 6.10047C3.65862 5.92568 3.81765 5.79513 4.0073 5.73757C6.83574 4.88201 11.5285 5.04801 14.4974 6.80378C14.65 6.91302 14.7559 7.07569 14.7941 7.25949C14.8322 7.44324 14.7997 7.63464 14.7032 7.79562C14.6066 7.95656 14.453 8.07524 14.2729 8.12805C14.0928 8.18091 13.8994 8.16401 13.7312 8.08073V8.0935Z"/>
</mask>
<path d="M9.00015 1.00012C7.41787 1.00012 5.87115 1.46931 4.55554 2.34834C3.23998 3.22742 2.21461 4.47686 1.60907 5.93864C1.00358 7.40047 0.845157 9.00901 1.15386 10.5608C1.46252 12.1127 2.22443 13.5382 3.34326 14.657C4.46209 15.7758 5.88758 16.5377 7.43942 16.8464C8.99126 17.1551 10.5998 16.9967 12.0616 16.3912C13.5234 15.7856 14.7728 14.7603 15.6519 13.4447C16.5309 12.1291 17.0001 10.5824 17.0001 9.00014C17.0001 6.87838 16.1573 4.84356 14.657 3.34328C13.1567 1.84296 11.1219 1.00012 9.00015 1.00012ZM12.6713 12.5372C12.6373 12.5938 12.5923 12.643 12.5391 12.682C12.4859 12.721 12.4254 12.749 12.3613 12.7645C12.2971 12.7799 12.2305 12.7824 12.1654 12.7719C12.1002 12.7614 12.0378 12.7381 11.9818 12.7033C10.1047 11.554 7.74235 11.2986 4.95863 11.9307C4.89529 11.9458 4.82962 11.9482 4.76535 11.9377C4.70112 11.9272 4.63955 11.9041 4.58435 11.8697C4.52911 11.8352 4.48126 11.7901 4.44357 11.737C4.40587 11.6839 4.37916 11.6239 4.36487 11.5604C4.34965 11.4967 4.34723 11.4306 4.35761 11.3659C4.36803 11.3012 4.39107 11.2392 4.42546 11.1834C4.45986 11.1277 4.50495 11.0793 4.55806 11.041C4.61121 11.0027 4.67138 10.9752 4.73514 10.9602C7.78065 10.2643 10.3984 10.5644 12.5053 11.8541C12.6177 11.9228 12.6983 12.0333 12.7294 12.1613C12.7606 12.2894 12.7397 12.4246 12.6713 12.5372ZM13.6482 10.36C13.559 10.4973 13.4204 10.595 13.2612 10.633C13.102 10.6711 12.9343 10.6465 12.7926 10.5644C10.365 9.21018 7.49918 8.87493 4.82455 9.63218C4.74133 9.67861 4.64876 9.70579 4.55368 9.71175C4.45855 9.71772 4.36333 9.70232 4.27495 9.66669C4.18657 9.63105 4.10731 9.57613 4.04295 9.50585C3.97858 9.43561 3.93074 9.35181 3.90295 9.26069C3.87517 9.16952 3.86814 9.07333 3.88238 8.9791C3.89662 8.88488 3.93176 8.79507 3.98524 8.7162C4.03871 8.63733 4.10918 8.57147 4.19141 8.52334C4.2737 8.47527 4.36566 8.44616 4.4606 8.43828C5.95348 8.00853 7.51719 7.88144 9.05986 8.06458C10.6025 8.24767 12.0931 8.73723 13.4439 9.50453C13.5811 9.59373 13.6788 9.73227 13.7168 9.89147C13.7549 10.0507 13.7303 10.2185 13.6482 10.36ZM13.7312 8.0935C11.1773 6.56116 6.90598 6.42069 4.44147 7.16771C4.25182 7.22531 4.04704 7.20517 3.87224 7.11175C3.69743 7.01837 3.56689 6.85936 3.50932 6.6697C3.45175 6.48008 3.47185 6.2753 3.56526 6.10047C3.65862 5.92568 3.81765 5.79513 4.0073 5.73757C6.83574 4.88201 11.5285 5.04801 14.4974 6.80378C14.65 6.91302 14.7559 7.07569 14.7941 7.25949C14.8322 7.44324 14.7997 7.63464 14.7032 7.79562C14.6066 7.95656 14.453 8.07524 14.2729 8.12805C14.0928 8.18091 13.8994 8.16401 13.7312 8.08073V8.0935Z" fill="#1ED760"/>
<path d="M4.55554 2.34834L3.99998 1.51686L3.99995 1.51689L4.55554 2.34834ZM1.60907 5.93864L0.685202 5.55593L0.685187 5.55597L1.60907 5.93864ZM1.15386 10.5608L2.13465 10.3658L2.13464 10.3657L1.15386 10.5608ZM3.34326 14.657L2.63615 15.3641L2.63617 15.3641L3.34326 14.657ZM12.0616 16.3912L11.6789 15.4673L11.6789 15.4673L12.0616 16.3912ZM14.657 3.34328L13.9499 4.05039L14.657 3.34328ZM12.6713 12.5372L11.8164 12.0185L11.8145 12.0216L12.6713 12.5372ZM12.5391 12.682L13.1302 13.4886L13.1305 13.4884L12.5391 12.682ZM12.3613 12.7645L12.1273 11.7922L12.1271 11.7923L12.3613 12.7645ZM11.9818 12.7033L12.5097 11.854L12.5039 11.8504L11.9818 12.7033ZM4.95863 11.9307L4.73719 10.9555L4.72649 10.958L4.95863 11.9307ZM4.76535 11.9377L4.92682 10.9508L4.92623 10.9507L4.76535 11.9377ZM4.58435 11.8697L4.05511 12.7181L4.05531 12.7183L4.58435 11.8697ZM4.36487 11.5604L5.34058 11.3409L5.3375 11.328L4.36487 11.5604ZM4.35761 11.3659L3.37034 11.2068L3.37023 11.2075L4.35761 11.3659ZM4.42546 11.1834L3.57449 10.6582L3.57429 10.6586L4.42546 11.1834ZM4.55806 11.041L3.97334 10.2298L3.973 10.23L4.55806 11.041ZM4.73514 10.9602L4.51237 9.98532L4.50581 9.98686L4.73514 10.9602ZM12.5053 11.8541L11.9833 12.707L11.9836 12.7072L12.5053 11.8541ZM12.7294 12.1613L11.7577 12.3973L11.7577 12.3976L12.7294 12.1613ZM13.6482 10.36L14.4867 10.905L14.5005 10.8837L14.5133 10.8616L13.6482 10.36ZM12.7926 10.5644L13.2942 9.69924L13.287 9.69508L13.2798 9.69104L12.7926 10.5644ZM4.82455 9.63218L4.55213 8.67L4.43951 8.70189L4.3373 8.75892L4.82455 9.63218ZM4.55368 9.71175L4.61623 10.7098L4.61627 10.7098L4.55368 9.71175ZM4.04295 9.50585L4.7804 8.83045L4.78018 8.8302L4.04295 9.50585ZM3.90295 9.26069L2.94639 9.55221L2.94643 9.55234L3.90295 9.26069ZM3.88238 8.9791L2.89361 8.82965L3.88238 8.9791ZM4.19141 8.52334L3.68696 7.65991L3.68638 7.66025L4.19141 8.52334ZM4.4606 8.43828L4.54339 9.43484L4.64208 9.42665L4.73724 9.39925L4.4606 8.43828ZM9.05986 8.06458L8.94197 9.05761L8.942 9.05761L9.05986 8.06458ZM13.4439 9.50453L13.9888 8.66606L13.9638 8.64978L13.9378 8.63502L13.4439 9.50453ZM13.7168 9.89147L14.6895 9.65922L14.6895 9.65916L13.7168 9.89147ZM13.7312 8.0935L13.2167 8.95099L14.7312 9.85971V8.0935H13.7312ZM4.44147 7.16771L4.1514 6.21071L4.15085 6.21087L4.44147 7.16771ZM3.87224 7.11175L4.34359 6.2298L4.34341 6.2297L3.87224 7.11175ZM3.50932 6.6697L4.46621 6.37925L4.46619 6.37918L3.50932 6.6697ZM3.56526 6.10047L4.44727 6.5717L4.44731 6.57162L3.56526 6.10047ZM4.0073 5.73757L3.71777 4.7804L3.71689 4.78067L4.0073 5.73757ZM14.4974 6.80378L15.0795 5.99065L15.044 5.96525L15.0064 5.94303L14.4974 6.80378ZM14.7941 7.25949L15.7732 7.05638L15.7732 7.05619L14.7941 7.25949ZM14.7032 7.79562L15.5606 8.31016L15.5607 8.31005L14.7032 7.79562ZM14.2729 8.12805L13.9914 7.16848L13.9913 7.16853L14.2729 8.12805ZM13.7312 8.08073L14.1749 7.18457L12.7312 6.4697V8.08073H13.7312ZM9.00015 0.00012207C7.2201 0.00012207 5.48004 0.527954 3.99998 1.51686L5.1111 3.17982C6.26226 2.41066 7.61565 2.00012 9.00015 2.00012V0.00012207ZM3.99995 1.51689C2.51996 2.50584 1.36642 3.91145 0.685202 5.55593L2.53294 6.32135C3.06279 5.04227 3.96001 3.94899 5.11114 3.17979L3.99995 1.51689ZM0.685187 5.55597C0.00401407 7.20052 -0.174216 9.01012 0.173077 10.7559L2.13464 10.3657C1.86453 9.00789 2.00315 7.60043 2.53295 6.32132L0.685187 5.55597ZM0.17307 10.7559C0.52031 12.5018 1.37747 14.1054 2.63615 15.3641L4.05037 13.9499C3.07139 12.9709 2.40472 11.7236 2.13465 10.3658L0.17307 10.7559ZM2.63617 15.3641C3.89484 16.6227 5.4985 17.4799 7.24433 17.8272L7.63451 15.8656C6.27665 15.5955 5.02934 14.9288 4.05035 13.9499L2.63617 15.3641ZM7.24433 17.8272C8.99014 18.1744 10.7997 17.9962 12.4443 17.315L11.6789 15.4673C10.3998 15.9971 8.99238 16.1357 7.63451 15.8656L7.24433 17.8272ZM12.4443 17.315C14.0888 16.6338 15.4944 15.4803 16.4834 14.0003L14.8204 12.8891C14.0513 14.0402 12.958 14.9374 11.6789 15.4673L12.4443 17.315ZM16.4834 14.0003C17.4723 12.5202 18.0001 10.7802 18.0001 9.00014H16.0001C16.0001 10.3846 15.5896 11.738 14.8204 12.8891L16.4834 14.0003ZM18.0001 9.00014C18.0001 6.61316 17.0519 4.32399 15.3641 2.63618L13.9499 4.05039C15.2626 5.36313 16.0001 7.14359 16.0001 9.00014H18.0001ZM15.3641 2.63618C13.6762 0.948317 11.3871 0.00012207 9.00015 0.00012207V2.00012C10.8567 2.00012 12.6371 2.7376 13.9499 4.05039L15.3641 2.63618ZM11.8145 12.0216C11.849 11.9643 11.8944 11.9147 11.9477 11.8756L13.1305 13.4884C13.2903 13.3712 13.4256 13.2233 13.5281 13.0529L11.8145 12.0216ZM11.9481 11.8753C12.0018 11.836 12.0627 11.8078 12.1273 11.7922L12.5952 13.7367C12.7881 13.6903 12.97 13.606 13.1302 13.4886L11.9481 11.8753ZM12.1271 11.7923C12.192 11.7766 12.2591 11.7741 12.3247 11.7847L12.006 13.7592C12.2019 13.7908 12.4023 13.7832 12.5954 13.7367L12.1271 11.7923ZM12.3247 11.7847C12.3901 11.7953 12.453 11.8187 12.5097 11.854L11.4538 13.5525C11.6226 13.6574 11.8103 13.7276 12.006 13.7592L12.3247 11.7847ZM12.5039 11.8504C10.3426 10.5271 7.69452 10.284 4.7372 10.9555L5.18006 12.9059C7.79018 12.3132 9.86678 12.5809 11.4596 13.5561L12.5039 11.8504ZM4.72649 10.958C4.79186 10.9424 4.85998 10.9399 4.92682 10.9508L4.60388 12.9246C4.79926 12.9565 4.99872 12.9492 5.19077 12.9034L4.72649 10.958ZM4.92623 10.9507C4.99265 10.9615 5.05622 10.9854 5.1134 11.0211L4.05531 12.7183C4.22288 12.8227 4.4096 12.8929 4.60447 12.9247L4.92623 10.9507ZM5.1136 11.0212C5.17062 11.0568 5.22004 11.1033 5.25896 11.1581L3.62818 12.316C3.74249 12.477 3.8876 12.6136 4.05511 12.7181L5.1136 11.0212ZM5.25896 11.1581C5.29824 11.2135 5.32581 11.2757 5.34049 11.3409L3.38924 11.7798C3.4325 11.9721 3.5135 12.1544 3.62818 12.316L5.25896 11.1581ZM5.3375 11.328C5.35304 11.3931 5.35533 11.4598 5.34498 11.5243L3.37023 11.2075C3.33913 11.4013 3.34626 11.6003 3.39223 11.7927L5.3375 11.328ZM5.34487 11.525C5.33442 11.5898 5.31127 11.6522 5.27663 11.7083L3.57429 10.6586C3.47087 10.8263 3.40164 11.0126 3.37034 11.2068L5.34487 11.525ZM5.27644 11.7087C5.2416 11.7651 5.19621 11.8137 5.14311 11.852L3.973 10.23C3.8137 10.3449 3.67812 10.4903 3.57449 10.6582L5.27644 11.7087ZM5.14278 11.8522C5.08938 11.8907 5.02882 11.9184 4.96448 11.9336L4.50581 9.98686C4.31395 10.0321 4.13303 10.1147 3.97334 10.2298L5.14278 11.8522ZM4.95791 11.9351C7.81987 11.2811 10.1544 11.5875 11.9833 12.707L13.0274 11.0012C10.6423 9.5412 7.74144 9.24745 4.51237 9.98534L4.95791 11.9351ZM11.9836 12.7072C11.8703 12.6379 11.7891 12.5265 11.7577 12.3973L13.7012 11.9254C13.6076 11.5401 13.3651 11.2077 13.027 11.0009L11.9836 12.7072ZM11.7577 12.3976C11.7264 12.2685 11.7474 12.1322 11.8164 12.0185L13.5262 13.056C13.7319 12.717 13.7948 12.3103 13.7011 11.9251L11.7577 12.3976ZM12.8097 9.81509C12.8604 9.73719 12.9389 9.68189 13.0289 9.66039L13.4935 11.6057C13.902 11.5081 14.2576 11.2574 14.4867 10.905L12.8097 9.81509ZM13.0289 9.66039C13.1192 9.63884 13.2141 9.65281 13.2942 9.69924L12.2911 11.4295C12.6544 11.6401 13.0848 11.7033 13.4935 11.6057L13.0289 9.66039ZM13.2798 9.69104C10.6208 8.20777 7.48172 7.84057 4.55213 8.67L5.09696 10.5944C7.51664 9.90929 10.1093 10.2126 12.3055 11.4377L13.2798 9.69104ZM4.3373 8.75892C4.38463 8.73251 4.43719 8.7171 4.4911 8.71372L4.61627 10.7098C4.86034 10.6945 5.09803 10.6247 5.3118 10.5054L4.3373 8.75892ZM4.49113 8.71371C4.54492 8.71034 4.59884 8.71905 4.64888 8.73923L3.90102 10.5941C4.12782 10.6856 4.37218 10.7251 4.61623 10.7098L4.49113 8.71371ZM4.64888 8.73923C4.69882 8.75936 4.74382 8.79051 4.7804 8.83045L3.3055 10.1812C3.47081 10.3617 3.67432 10.5027 3.90102 10.5941L4.64888 8.73923ZM4.78018 8.8302C4.8167 8.87006 4.84376 8.91748 4.85948 8.96904L2.94643 9.55234C3.01772 9.78615 3.14046 10.0012 3.30572 10.1815L4.78018 8.8302ZM4.85952 8.96917C4.87523 9.02071 4.87922 9.07519 4.87115 9.12855L2.89361 8.82965C2.85706 9.07146 2.87511 9.31833 2.94639 9.55221L4.85952 8.96917ZM4.87115 9.12855C4.86309 9.18189 4.84318 9.23276 4.81293 9.27738L3.15754 8.15502C3.02034 8.35738 2.93016 8.58787 2.89361 8.82965L4.87115 9.12855ZM4.81293 9.27738C4.78251 9.32225 4.74262 9.35943 4.69645 9.38644L3.68638 7.66025C3.47573 7.7835 3.29492 7.95241 3.15754 8.15502L4.81293 9.27738ZM4.69587 9.38678C4.64974 9.41373 4.5977 9.43033 4.54339 9.43484L4.37782 7.44171C4.13362 7.46199 3.89765 7.53681 3.68696 7.65991L4.69587 9.38678ZM4.73724 9.39925C6.10207 9.00636 7.53165 8.89018 8.94197 9.05761L9.17775 7.07155C7.50273 6.8727 5.80488 7.01069 4.18397 7.4773L4.73724 9.39925ZM8.942 9.05761C10.3524 9.225 11.7151 9.67257 12.95 10.374L13.9378 8.63502C12.4711 7.8019 10.8527 7.27035 9.17772 7.07155L8.942 9.05761ZM12.8989 10.343C12.821 10.2923 12.7657 10.2138 12.7442 10.1238L14.6895 9.65916C14.5919 9.25075 14.3413 8.89512 13.9888 8.66606L12.8989 10.343ZM12.7442 10.1237C12.7227 10.0337 12.7365 9.93872 12.7831 9.85844L14.5133 10.8616C14.724 10.4982 14.787 10.0677 14.6895 9.65922L12.7442 10.1237ZM14.2457 7.23601C12.7893 6.36217 10.9149 5.91916 9.1312 5.77892C7.34302 5.63832 5.52958 5.79296 4.1514 6.21071L4.73155 8.12471C5.81787 7.79544 7.37234 7.6468 8.97443 7.77277C10.581 7.89909 12.1192 8.29249 13.2167 8.95099L14.2457 7.23601ZM4.15085 6.21087C4.21511 6.19135 4.28444 6.19819 4.34359 6.2298L3.40089 7.99369C3.80965 8.21216 4.28853 8.25927 4.7321 8.12455L4.15085 6.21087ZM4.34341 6.2297C4.40259 6.26132 4.44675 6.31514 4.46621 6.37925L2.55243 6.96015C2.68703 7.40359 2.99227 7.77542 3.40107 7.99379L4.34341 6.2297ZM4.46619 6.37918C4.48566 6.44333 4.47886 6.51256 4.44727 6.5717L2.68325 5.62924C2.46484 6.03803 2.41783 6.51683 2.55245 6.96022L4.46619 6.37918ZM4.44731 6.57162C4.41567 6.63086 4.36185 6.67501 4.2977 6.69447L3.71689 4.78067C3.27344 4.91525 2.90157 5.22051 2.6832 5.62932L4.44731 6.57162ZM4.29683 6.69474C5.56753 6.31037 7.31858 6.14205 9.11877 6.28815C10.9215 6.43446 12.6755 6.88811 13.9883 7.66453L15.0064 5.94303C13.3504 4.96368 11.2735 4.45645 9.28055 4.2947C7.28504 4.13275 5.27551 4.30921 3.71777 4.7804L4.29683 6.69474ZM13.9153 7.6169C13.8637 7.57996 13.8278 7.52495 13.8149 7.46279L15.7732 7.05619C15.6839 6.62644 15.4363 6.24608 15.0795 5.99065L13.9153 7.6169ZM13.8149 7.4626C13.802 7.40036 13.813 7.33561 13.8456 7.28119L15.5607 8.31005C15.7865 7.93368 15.8624 7.48612 15.7732 7.05638L13.8149 7.4626ZM13.8457 7.28108C13.8784 7.22656 13.9304 7.18637 13.9914 7.16848L14.5544 9.08763C14.9755 8.9641 15.3348 8.68655 15.5606 8.31016L13.8457 7.28108ZM13.9913 7.16853C14.0523 7.15061 14.1179 7.15633 14.1749 7.18457L13.2874 8.97689C13.6809 9.1717 14.1333 9.21122 14.5545 9.08758L13.9913 7.16853ZM12.7312 8.08073V8.0935H14.7312V8.08073H12.7312Z" fill="black" mask="url(#path-1-outside-1_301_455)"/>
</svg>
